<svg width="16" height="16" viewBox="0 0 16 16" fill="none" xmlns="http://www.w3.org/2000/svg">
<g clip-path="url(#clip0_2504_1087)">
<path d="M7.74082 7.1835L7.99249 7.43143L8.24495 7.18429C8.50685 6.92787 10.8174 4.65719 11.2847 3.89692C11.5884 3.40299 11.7238 2.9072 11.7238 2.28938C11.7237 0.786391 10.5945 0 9.47901 0C8.86515 0 8.35518 0.211095 7.99616 0.604651C7.72139 0.304052 7.25963 0 6.51619 0C5.19738 0 4.27631 0.941439 4.27631 2.28938C4.27631 2.90454 4.4125 3.40026 4.71778 3.89692C5.18479 4.65683 7.48058 6.92708 7.74082 7.1835Z" fill="white"/>
<path d="M8.2592 8.81648L8.00753 8.56854L7.75506 8.81568C7.49317 9.07211 5.18271 11.3427 4.71533 12.1031C4.41171 12.597 4.27631 13.0928 4.27631 13.7106C4.27631 15.2137 5.40553 16 6.52101 16C7.13473 16 7.64469 15.7888 8.00379 15.3953C8.27848 15.6959 8.74024 16 9.48375 16C10.8026 16 11.7236 15.0585 11.7236 13.7106C11.7236 13.0956 11.5874 12.5999 11.2822 12.1031C10.8152 11.3431 8.51944 9.0729 8.2592 8.81648Z" fill="white"/>
<path d="M15.3951 7.99712C15.6957 7.72243 15.9998 7.26067 15.9998 6.51716C15.9998 5.19842 15.0584 4.27734 13.7105 4.27734C13.0953 4.27734 12.5995 4.41354 12.1029 4.71882C11.343 5.18583 9.07271 7.48155 8.81629 7.74185L8.56836 7.99353L8.8155 8.24599C9.07192 8.50788 11.3426 10.8184 12.1029 11.2857C12.5967 11.5893 13.0925 11.7247 13.7105 11.7247C15.2135 11.7247 15.9998 10.5956 15.9998 9.48012C15.9998 8.86618 15.7886 8.35622 15.3951 7.99712Z" fill="white"/>
<path d="M7.1835 8.25829L7.43143 8.00661L7.18429 7.75415C6.92787 7.49226 4.65726 5.18172 3.89699 4.71442C3.40321 4.4108 2.90734 4.27539 2.28938 4.27539C0.786391 4.27546 0 5.40461 0 6.52009C0 7.13388 0.211167 7.64385 0.604794 8.00294C0.304124 8.27764 0 8.7394 0 9.48291C0 10.8016 0.941439 11.7227 2.28938 11.7227C2.90461 11.7227 3.40033 11.5865 3.89692 11.2812C4.6569 10.8142 6.92715 8.51852 7.1835 8.25829Z" fill="white"/>
</g>
<defs>
<clipPath id="clip0_2504_1087">
<rect width="16" height="16" fill="white"/>
</clipPath>
</defs>
</svg>
