<svg width="40" height="40" viewBox="0 0 40 40" fill="none" xmlns="http://www.w3.org/2000/svg">
<path d="M39.108 15.8303C39.008 15.8388 36.7087 15.9843 35.0424 17.5251C34.9925 17.0029 34.9175 16.4808 34.8175 15.9758C35.5423 15.428 36.692 14.3751 37.2169 12.8258C38.0083 10.5319 37.0752 8.16085 37.0419 8.05813C36.9503 7.83558 36.767 7.65583 36.542 7.57879C36.3254 7.50176 36.0755 7.51888 35.8672 7.63015C35.7756 7.69007 33.7678 8.83706 32.9097 10.9684C32.6431 10.5233 32.3682 10.0868 32.0599 9.6759C32.4848 8.86274 33.0596 7.4076 32.8847 5.76415C32.6264 3.35034 30.7853 1.6213 30.7103 1.55282C30.5353 1.39019 30.3021 1.31315 30.0605 1.33883C29.8272 1.36451 29.6106 1.49291 29.4773 1.68978C29.4106 1.77537 28.111 3.71841 28.236 6.01238C27.5695 5.56728 26.8613 5.16498 26.1199 4.83116C25.7033 4.64284 25.2118 4.83116 25.0202 5.2677C24.8369 5.69568 25.0285 6.20069 25.445 6.39757C26.903 7.05666 28.2026 7.97254 29.319 9.07673L30.3021 10.1638C31.3101 11.3964 32.1016 12.8087 32.6431 14.3323L33.043 15.6762C33.3096 16.7461 33.4512 17.8589 33.4595 18.9973C33.4595 19.4424 33.4345 19.879 33.4012 20.3155L33.1679 21.9161C32.843 23.5082 32.2349 24.9976 31.4184 26.3415L30.8103 27.2573C29.7855 28.6697 28.5109 29.8766 27.0446 30.8096L26.2698 31.2718C24.8702 32.0336 23.3206 32.5472 21.6794 32.7612L20.3131 32.8639C20.2215 32.8639 20.1381 32.881 20.0548 32.881H19.9965C19.9799 32.881 19.9549 32.881 19.9382 32.881L18.3303 32.7697C16.7474 32.5643 15.2478 32.085 13.8815 31.3574L12.8735 30.7668C11.4738 29.868 10.2575 28.7125 9.26609 27.3601L8.64959 26.4442C7.82482 25.1089 7.20832 23.6195 6.86674 22.0274L6.62514 20.461C6.58349 20.0245 6.55849 19.5794 6.55016 19.1257C6.55016 17.9958 6.68346 16.8831 6.94172 15.8131L7.37494 14.3409C7.90813 12.8258 8.69958 11.4306 9.69931 10.198L10.6324 9.16232C11.7321 8.05813 13.0234 7.13369 14.473 6.45748C14.8896 6.26061 15.0729 5.75559 14.8896 5.32761C14.698 4.89963 14.2064 4.70276 13.7815 4.89963C13.0401 5.24202 12.3403 5.65288 11.6821 6.09798C11.7904 3.79544 10.4658 1.86953 10.4075 1.79249C10.2658 1.58706 10.0575 1.46723 9.81594 1.44155C9.57434 1.39875 9.34107 1.47579 9.16612 1.63842C9.08281 1.71546 7.2583 3.45306 7.0167 5.87543C6.85841 7.51032 7.44992 8.96545 7.8748 9.77861C7.57488 10.198 7.29996 10.6346 7.0417 11.0797C6.16693 8.95689 4.14248 7.81846 4.05084 7.7671C3.84256 7.65583 3.60096 7.63871 3.37602 7.71575C3.15108 7.80134 2.97613 7.98109 2.88449 8.20364C2.85117 8.30636 1.93475 10.6859 2.74286 12.9628C3.28438 14.5035 4.4424 15.5478 5.1672 16.0956C5.06723 16.6092 5.00058 17.1228 4.9506 17.6449C3.26772 16.1298 0.968343 15.9929 0.876701 15.9929C0.626769 15.9843 0.410161 16.0699 0.243539 16.2497C0.0769176 16.4209 -0.0147242 16.6605 0.001938 16.9002C0.0102691 17.0115 0.193553 19.5708 1.88476 21.2656C3.03445 22.4212 4.51738 22.8491 5.40047 23.0118C5.53377 23.5168 5.68373 24.0133 5.85868 24.4926C3.70094 23.8677 1.56818 24.7836 1.47654 24.8264C1.25993 24.9291 1.08498 25.1089 1.01 25.34C0.935018 25.5711 0.960012 25.8279 1.07665 26.0333C1.12663 26.1275 2.36796 28.3444 4.61735 29.1319C5.24218 29.3459 5.86701 29.4229 6.45019 29.4229C7.27497 29.4229 8.0081 29.2689 8.5163 29.1233C8.84954 29.5256 9.20778 29.9023 9.58267 30.2703C7.36661 30.6641 5.81703 32.4274 5.75871 32.513C5.60042 32.6927 5.52544 32.9409 5.55876 33.1806C5.58376 33.4203 5.70872 33.6428 5.90867 33.7798C5.98365 33.8397 7.67486 35.0209 9.74096 35.0209C9.95757 35.0209 10.1825 35.0124 10.4075 34.9781C11.982 34.7812 13.24 33.8483 13.9148 33.2491C14.373 33.4545 14.8479 33.6428 15.3311 33.8055C13.5233 35.1493 12.8818 37.4176 12.8568 37.5203C12.7901 37.76 12.8235 38.0082 12.9568 38.2137C13.0817 38.4191 13.29 38.5646 13.5233 38.5988C13.5649 38.6074 13.9398 38.6673 14.5063 38.6673C15.4311 38.6673 16.8474 38.5047 18.0887 37.683C19.0135 37.0667 19.6549 36.2107 20.0715 35.466C20.4964 36.2107 21.1462 37.0667 22.071 37.6744C23.2873 38.4619 24.6703 38.616 25.595 38.616C26.1948 38.616 26.6031 38.5475 26.6447 38.5475C26.878 38.5047 27.0779 38.3592 27.2112 38.1537C27.3362 37.9483 27.3695 37.7001 27.3029 37.4604C27.2779 37.3577 26.6197 35.0894 24.7952 33.7627C25.2784 33.6 25.7533 33.4032 26.2115 33.1892C26.8863 33.7883 28.1526 34.7042 29.7439 34.8925C29.9522 34.9182 30.1521 34.9268 30.3604 34.9268C32.4431 34.9268 34.151 33.7113 34.226 33.6514C34.4259 33.5144 34.5509 33.2919 34.5759 33.0522C34.6009 32.8125 34.5259 32.5643 34.376 32.3846C34.301 32.3075 32.7347 30.5442 30.5187 30.1762C30.8852 29.8081 31.2435 29.4229 31.5767 29.0206C32.0766 29.1576 32.7847 29.3031 33.5845 29.3031C34.1843 29.3031 34.8342 29.2261 35.4757 28.9949C37.7167 28.1989 38.9414 25.9734 38.9914 25.8792C39.0997 25.6653 39.1247 25.4085 39.0497 25.1859C38.9664 24.9548 38.7998 24.7665 38.5831 24.6723C38.4832 24.6295 36.3504 23.7308 34.1927 24.3813C34.3676 23.8934 34.5176 23.397 34.6426 22.8919C35.5173 22.7208 37.0086 22.2757 38.1499 21.1115C39.8245 19.3996 39.9911 16.8403 39.9994 16.7376C40.0078 16.4894 39.9245 16.2497 39.7578 16.0785C39.5829 15.9073 39.3496 15.8217 39.108 15.8303Z" fill="#3F3F00"/>
<path d="M27.9625 18.0441C27.8639 17.7346 27.6092 17.5024 27.2969 17.4594L22.7692 16.7716L20.7396 12.4729C20.5999 12.1805 20.3123 12 20 12C19.6877 12 19.4001 12.1805 19.2604 12.4815L18.4716 14.1666C18.4469 14.201 18.4305 14.2268 18.4141 14.2612L17.2308 16.7716L12.7031 17.4594C12.3908 17.5024 12.1361 17.7346 12.0375 18.0441C11.9471 18.3536 12.021 18.6975 12.2511 18.921L15.5298 22.2655L14.7574 26.9941C14.6999 27.3122 14.8313 27.6389 15.0861 27.8366C15.2258 27.9398 15.3983 28 15.5627 28C15.6941 28 15.8256 27.9656 15.9489 27.8968L20 25.6701L24.0511 27.8968C24.3305 28.0516 24.6674 28.0258 24.9221 27.8366C25.1687 27.6389 25.3001 27.3122 25.2426 26.9941L24.4702 22.2655L27.7489 18.921C27.979 18.6975 28.0529 18.3536 27.9625 18.0441Z" fill="#3F3F00"/>
</svg>
